<svg xmlns="http://www.w3.org/2000/svg" viewBox="0 0 383.61 383.53">
  <defs>
    <style>
      .cls-1 {
        fill: #28aaf9;
      }

      .cls-2 {
        fill: #3b87f4;
      }

      .cls-3 {
        fill: #61c1fa;
      }

      .cls-4 {
        fill: #3ab2f9;
      }

      .cls-5 {
        fill: #38a8f8;
      }

      .cls-6 {
        fill: #a5c8f9;
      }

      .cls-7 {
        fill: #9ac1f9;
      }

      .cls-8 {
        fill: #fefefe;
      }

      .cls-9 {
        fill: #c3f2fe;
      }
    </style>
  </defs>
  <g id="Layer_2" data-name="Layer 2">
    <g id="Layer_1-2" data-name="Layer 1">
      <g>
        <path class="cls-1" d="M176.34,0h4.49c1.44.79,3,.18,4.48.37,1.5-.19,3.05.42,4.5-.37H198a5.92,5.92,0,0,0,4.49,0h5.24c4.19.85,8.49.45,12.7,1.11,7.89,1.28,15.32,4.18,22.86,6.66a142.64,142.64,0,0,1,43,22.82,188.11,188.11,0,0,1,49,56.68A207.35,207.35,0,0,1,358.67,152,215.41,215.41,0,0,1,362,203.3c-1.68,30.33-9.16,59.22-23.19,86.26a193.72,193.72,0,0,1-37.43,50,158.6,158.6,0,0,1-67.54,38.93c-4.52,1.31-9,2.66-13.59,3.88a315.13,315.13,0,0,1-40.65.84c-7-.29-13.94-.3-20.84-1.34-16-2.4-31.24-7.46-46-14.05a184.16,184.16,0,0,1-47.38-30.29c-17.44-15.49-32.2-33.22-43.3-53.91A195.52,195.52,0,0,1,2.22,228.28,121.82,121.82,0,0,1,.55,210.84a332.74,332.74,0,0,1,.8-49.62c1.47-14.72,6-28.77,11.55-42.42A191.06,191.06,0,0,1,51.64,58.91a195.86,195.86,0,0,1,50.57-38.48A182.44,182.44,0,0,1,154.89,1.92C161.12.77,167.51.83,173.82.37,174.67.31,175.58.64,176.34,0Z"/>
        <path class="cls-2" d="M220.46,2.31a148.82,148.82,0,0,1,41,10.74Q361,54.84,381.22,161c.94,4.94.59,10.08,2.39,14.88v2.25a1.73,1.73,0,0,0,0,2.24V202a1.73,1.73,0,0,0,0,2.24V208c-1.88,3.75-1.47,7.92-2.09,11.89Q370.65,289.29,318,335.72c-27.18,24-58.88,38.74-94.61,44.86-1.22.2-2.47.19-3.71.28,4.56-1.2,9.15-2.32,13.68-3.62a157.16,157.16,0,0,0,58.73-31.71,184.34,184.34,0,0,0,47.52-61.7,206.73,206.73,0,0,0,19.4-67.9,218.56,218.56,0,0,0,1.26-34.29,213.85,213.85,0,0,0-17.38-75.26A188,188,0,0,0,296.1,41C275.56,22.44,251.86,9.67,224.72,3.63,223.27,3.31,221.88,2.75,220.46,2.31Z"/>
        <path class="cls-3" d="M185.26.7c-1.49-.14-3.12.55-4.43-.7h4.49C185.83.28,185.81.51,185.26.7Z"/>
        <path class="cls-4" d="M185.26.7l.06-.7h4.49C188.42,1.06,186.81.68,185.26.7Z"/>
        <path class="cls-5" d="M202.53,0A3.68,3.68,0,0,1,198,0Z"/>
        <path class="cls-6" d="M383.61,180.33c-.84-.75-1.06-1.5,0-2.24Z"/>
        <path class="cls-7" d="M383.61,204.27c-1-.74-.8-1.49,0-2.24Z"/>
        <path class="cls-8" d="M149.39,290.22a22.63,22.63,0,0,1-24-21.43c-.13-2.24-.11-4.49-.11-6.73q0-72,0-144c0-9.15,2.87-16.6,10.72-21.69a20,20,0,0,1,13.47-3.47c6.35,1,11.43,4.78,16.6,8.13,34.83,22.5,69.32,45.54,103.69,68.73a26.15,26.15,0,0,1,0,43.61Q218.13,248.18,166,282.09C160.82,285.44,155.74,289.2,149.39,290.22Z"/>
        <path class="cls-9" d="M149.39,290.22c10.07-4.54,18.66-11.45,27.8-17.47q45.57-30,90.95-60.34c11.31-7.53,14.66-21.28,8.26-33.21a22.57,22.57,0,0,0-7.64-8.07q-56.16-37.4-112.41-74.67a68,68,0,0,0-7-3.57c4-.24,7.6,1.21,11,3.16q64.94,37.44,129.81,75c16.83,9.78,16.8,31.3,0,41.05q-64.81,37.63-129.81,75C157,289,153.41,290.45,149.39,290.22Z"/>
      </g>
    </g>
  </g>
</svg>
