<svg xmlns="http://www.w3.org/2000/svg" viewBox="0 0 189.94 190.25">
  <defs>
    <style>
      .cls-1 {
        fill: navy;
      }
    </style>
  </defs>
  <g id="Layer_2" data-name="Layer 2">
    <g id="Layer_1-2" data-name="Layer 1">
      <path class="cls-1" d="M189.89,95c1.74,49.86-41,95.62-95.5,95.3C42.28,189.94-.13,147,0,94.15.13,42.53,43.19.08,95.19,0,150-.09,191.58,46.48,189.89,95Zm-79.55,21.38c0-10.45-.06-20.9,0-31.35,0-2.38-.66-3.31-3.16-3.27-7.71.12-15.43.13-23.14,0-2.56,0-3.12,1-3.11,3.31q.09,31.36,0,62.71c0,2.77,1.09,3.32,3.54,3.28,7.33-.12,14.68-.2,22,0,3.24.1,3.93-1.11,3.89-4.09C110.24,136.74,110.34,126.54,110.34,116.33Zm1-64.42c0-9.25-6.61-15.77-16.09-15.8a15.7,15.7,0,0,0,.18,31.4C104.56,67.57,111.32,60.94,111.35,51.91Z"/>
    </g>
  </g>
</svg>
