<svg xmlns="http://www.w3.org/2000/svg" viewBox="0 0 620.71 82.72">
  <defs>
    <style>
      .cls-1 {
        fill: #1f4e79;
      }
    </style>
  </defs>
  <g id="Layer_2" data-name="Layer 2">
    <g id="Layer_1-2" data-name="Layer 1">
      <g>
        <path class="cls-1" d="M0,6.07C.46,6,.77,6,1.07,6c2.6,0,5.21,0,7.81,0a2,2,0,0,1,1.43.52q8,6.83,16,13.62L41.75,33.27,55.28,44.76l7.16,6.08a9.78,9.78,0,0,0,.82.54,3.75,3.75,0,0,0,.2-.73c0-.37,0-.74,0-1.11V7.32C63.47,6,63.47,6,64.81,6h17c.79,0,.82.06.82.86q0,37,0,74c0,.28,0,.56,0,.83,0,.84,0,.87-.9.89-.31,0-.62,0-.93,0-1.77,0-3.53,0-5.3,0a2.27,2.27,0,0,1-1.68-.6c-2.65-2.34-5.33-4.64-8-7L55.47,66,44.31,56.35,27.74,42l-7.52-6.52c-.22-.19-.46-.35-.87-.66-.06.52-.14.83-.14,1.14,0,1.28,0,2.55,0,3.82V80.29c0,1.23,0,1.24-1.23,1.24H1.14C0,81.52,0,81.52,0,80.38V6.07Z"/>
        <path class="cls-1" d="M541.05,45.77a9.4,9.4,0,0,0-.43,1q-1.53,5-3,10c-1.1,3.68-2.18,7.36-3.27,11s-2.22,7.35-3.32,11c-.2.65-.39,1.31-.57,2a.84.84,0,0,1-.93.72c-.19,0-.37,0-.56,0H514.43c-.39,0-.79,0-1.22-.08a6,6,0,0,1,.52-2.31c.83-2.88,1.72-5.74,2.59-8.62s1.68-5.5,2.51-8.26l2.52-8.35c.82-2.73,1.65-5.45,2.47-8.18s1.69-5.56,2.53-8.35,1.74-5.68,2.6-8.53,1.63-5.45,2.45-8.17c.55-1.84,1.11-3.68,1.65-5.52a.88.88,0,0,1,.93-.73h8.18A.85.85,0,0,1,543,15c.73,1.54,1.5,3.06,2.24,4.6q2.57,5.31,5.11,10.62,4,8.42,8.09,16.83c1.57,3.27,3.16,6.52,4.74,9.78.39.81.77,1.62,1.15,2.42.54,0,.66-.31.82-.65q2.08-4.45,4.19-8.91l7-14.87q3.81-8.05,7.61-16.12c.56-1.18,1.14-2.34,1.65-3.54a1.06,1.06,0,0,1,1.13-.74c2.61,0,5.21,0,7.82,0,.68,0,.8.11,1,.73q2.37,7.73,4.73,15.45c1.11,3.61,2.24,7.21,3.34,10.82q2,6.57,4,13.15c1,3.19,2,6.38,3,9.57,1.11,3.61,2.2,7.23,3.3,10.84q.86,2.81,1.73,5.59c.25.8.18.93-.68.93q-7.71,0-15.44,0c-.74,0-.82-.09-1-.8q-1.89-6.47-3.77-12.92-2-6.73-3.91-13.47c-.74-2.55-1.46-5.11-2.2-7.67-.08-.29-.2-.56-.29-.8-.51-.08-.62.25-.77.51l-5.07,9.3-8.17,14.91q-2.91,5.34-5.84,10.68c-.11.21-.24.43-.36.65a.93.93,0,0,1-.9.53c-1.67,0-3.35,0-5,0a1.13,1.13,0,0,1-1.07-.73c-1.17-2.15-2.37-4.28-3.54-6.43q-3.3-6-6.57-12l-9.23-16.88c-.13-.23-.3-.44-.45-.67Z"/>
        <path class="cls-1" d="M277.12,69a3.52,3.52,0,0,0,.62.2c.31,0,.62,0,.93,0h48.84c.42,0,.84,0,1.33.07,0,.38.06.68.06,1q0,5.11,0,10.23c0,.16,0,.31,0,.46,0,.38-.16.59-.55.6h-78.6c-1.38,0-1.38,0-1.38-1.38,0-.86,0-1.73,0-2.6a2.12,2.12,0,0,1,.39-1.09c2-2.52,3.95-5,5.94-7.51q5.1-6.39,10.21-12.79l9.73-12.22q5.67-7.12,11.34-14.26l6.85-8.57,4.75-6a4.27,4.27,0,0,0,.32-.54,3,3,0,0,0-.61-.23,7.18,7.18,0,0,0-.93,0H248.5a5.16,5.16,0,0,1-.13-.77c0-3.59,0-7.19,0-10.78,0-.87.12-1,1-1l76.19,0c1.51,0,1.51,0,1.51,1.49,0,.74,0,1.49,0,2.23a1.93,1.93,0,0,1-.47,1.36q-8.44,10.56-16.9,21.13-5.1,6.39-10.2,12.79c-3.36,4.21-6.75,8.41-10.11,12.62s-6.66,8.32-10,12.49c-.58.72-1.17,1.45-1.74,2.18A8.92,8.92,0,0,0,277.12,69Z"/>
        <path class="cls-1" d="M469,13.22c2.13.09,4.65.12,7.15.31A62.75,62.75,0,0,1,485.73,15a46.47,46.47,0,0,1,8.86,3,35.66,35.66,0,0,1,7.5,4.61,28.28,28.28,0,0,1,7.85,9.88,31.47,31.47,0,0,1,2.4,7.39,37.87,37.87,0,0,1,.67,9.61c-.45,8.11-3.16,15.28-9,21.1a37,37,0,0,1-11.71,7.73,48.48,48.48,0,0,1-10,3c-2.34.43-4.71.73-7.09.94-2.68.24-5.37.41-8.06.42A70.21,70.21,0,0,1,456,81.91a47,47,0,0,1-12.35-3.57A32,32,0,0,1,433.35,71a29.59,29.59,0,0,1-6.61-11.3,37.51,37.51,0,0,1-1.65-8.54,39.15,39.15,0,0,1-.11-5.93,29.4,29.4,0,0,1,5-14.77,37,37,0,0,1,12.33-11.22,41.14,41.14,0,0,1,9.69-4,52.2,52.2,0,0,1,12.17-1.88Zm25.62,34.27A29.47,29.47,0,0,0,493,37.32,18.37,18.37,0,0,0,483.6,26.7a33,33,0,0,0-13.51-3,38.41,38.41,0,0,0-6.86.31,27,27,0,0,0-6.81,1.77,20.1,20.1,0,0,0-10.65,10,26.23,26.23,0,0,0-2.43,12.08,32.25,32.25,0,0,0,1.49,9.79,21.27,21.27,0,0,0,4.52,7.93,20.48,20.48,0,0,0,12.38,6.2,36.19,36.19,0,0,0,9.36.21,38.45,38.45,0,0,0,8.36-1.65,21.9,21.9,0,0,0,9.78-6.34,20.28,20.28,0,0,0,4.14-7.61A27.59,27.59,0,0,0,494.57,47.49Z"/>
        <path class="cls-1" d="M376.84,13.22c2.1.09,4.68.11,7.24.34a73.88,73.88,0,0,1,7.54,1A42.24,42.24,0,0,1,408,21.17a28.58,28.58,0,0,1,10.76,13.65,33.45,33.45,0,0,1,1.77,7.47,40.91,40.91,0,0,1,.27,7.42c-.1,1.66-.4,3.31-.64,5a25.37,25.37,0,0,1-1.65,5.79,29.35,29.35,0,0,1-6,9.34,36.4,36.4,0,0,1-13,8.76,52.43,52.43,0,0,1-10.16,2.9c-2.77.53-5.58.76-8.38,1.07-.49.06-1,0-1.48.06-1.64,0-3.28.15-4.92.12a80.58,80.58,0,0,1-10.74-.78,47.07,47.07,0,0,1-12.53-3.64,32.11,32.11,0,0,1-8-5.2,29.73,29.73,0,0,1-8.63-12.9,42.33,42.33,0,0,1-1.36-5.49,36.73,36.73,0,0,1-.6-8.31,29.88,29.88,0,0,1,9.1-20.83,38.41,38.41,0,0,1,12.23-8.3,46.72,46.72,0,0,1,9-2.79,53.67,53.67,0,0,1,8.83-1.09Zm-1.76,59.05a56.76,56.76,0,0,0,7.45-.7,28.65,28.65,0,0,0,7.77-2.43,20.2,20.2,0,0,0,8.56-7.61,24.26,24.26,0,0,0,3.37-10.72,33.56,33.56,0,0,0-.61-10.62,21,21,0,0,0-2.9-7.09,19.57,19.57,0,0,0-11.05-7.86,35.79,35.79,0,0,0-8.4-1.44,34.91,34.91,0,0,0-13.59,1.45A20.46,20.46,0,0,0,356.8,31c-3.82,4.26-5.4,9.39-5.66,15a33.83,33.83,0,0,0,1.4,11.56,21,21,0,0,0,4.7,8.24,19.29,19.29,0,0,0,8.81,5.31A33.29,33.29,0,0,0,375.08,72.27Z"/>
        <path class="cls-1" d="M152.37,24.81c-.47,0-.89.08-1.31.08H108.27c-1.56,0-1.56,0-1.56,1.52V39.53c0,1.17.1,1.26,1.28,1.26h29.77c1.69,0,1.51,0,1.51,1.53v7.9c0,.39-.21.56-.58.56H108.17c-1.46,0-1.46,0-1.46,1.5V70c0,1,.11,1.13,1.11,1.14.18,0,.37,0,.56,0H151c1.81,0,1.44.07,1.44,1.45v7.81c0,1.16,0,1.17-1.19,1.17H90.48c-1.75,0-1.55,0-1.55-1.57V15.8c0-1.37,0-1.37,1.39-1.37h60.75c1.63,0,1.36.2,1.35,1.38,0,2.73,0,5.46,0,8.18C152.42,24.24,152.39,24.48,152.37,24.81Z"/>
        <path class="cls-1" d="M243.69,24.81c-.54,0-1,.08-1.38.08H211.89c-1.61,0-1.7-.19-1.7,1.66V80.11c0,1.42,0,1.42-1.43,1.42H193.88c-.25,0-.5,0-.74,0-.61,0-.69-.13-.73-.73,0-.24,0-.49,0-.74V26.59c0-1.7,0-1.7-1.67-1.7h-29c-1.72,0-1.48,0-1.48-1.53,0-2.63,0-5.27,0-7.9,0-1,0-1,1-1h80.93c1.71,0,1.54-.06,1.54,1.58v8.8Z"/>
        <path class="cls-1" d="M612.68,0a8,8,0,1,1-8,8A8,8,0,0,1,612.68,0Zm0,1.1A6.94,6.94,0,0,0,605.78,8,6.91,6.91,0,1,0,619.6,8,6.88,6.88,0,0,0,612.66,1.1Z"/>
        <path class="cls-1" d="M611.32,11.68l-1,0V4.38c1.39,0,2.75-.08,4.09,0a2.08,2.08,0,0,1,1.86,1.73,2.32,2.32,0,0,1-.74,2.44c-.23.2-.5.36-.8.58l.87,2.32c-.86.32-.93.3-1.23-.4-.12-.28-.23-.57-.35-.86-.46-1.15-.29-1.05-1.6-1.06-.31,0-.61,0-1,.06C611.4,10.05,611.36,10.8,611.32,11.68Zm.14-3.63c.9,0,1.73,0,2.55,0a1.29,1.29,0,0,0,.08-2.57c-.85-.07-1.7,0-2.63,0Z"/>
      </g>
    </g>
  </g>
</svg>
