<svg xmlns="http://www.w3.org/2000/svg" viewBox="0 0 36.82 36.77">
  <defs>
    <style>
      .cls-1 {
        fill: #66b09a;
      }

      .cls-2 {
        fill: #3e78b3;
      }
    </style>
  </defs>
  <g id="Layer_2" data-name="Layer 2">
    <g id="Layer_1-2" data-name="Layer 1">
      <g>
        <ellipse class="cls-1" cx="18.41" cy="18.28" rx="18.28" ry="18.41" transform="matrix(0.01, -1, 1, 0.01, -0.07, 36.49)"/>
        <path class="cls-2" d="M19.47,0c.71.1,1.42.17,2.13.29a17.16,17.16,0,0,1,6.57,2.55c.82.53,1.6,1.13,2.49,1.77-.27.21-.44.36-.64.49a5.07,5.07,0,0,0-.72.43c-.29.26-.18.54.18.66a.65.65,0,0,1,.26.26c.07.12.11.26.18.41l.74-.28.12.88c-.25,0-.46-.06-.67-.07a1,1,0,0,0-1.17.52.92.92,0,0,1-.9.59c-.31,0-.49.12-.47.47a1.88,1.88,0,0,1-.06.37l.38.15-.1.48a4.19,4.19,0,0,0-.57-.09A4.14,4.14,0,0,0,26.1,10c-.15.05-.23.4-.28.62a1.4,1.4,0,0,0,.06.49.64.64,0,0,0,.65.61h.15c.66,0,1.31.08,1.57-.74a1.89,1.89,0,0,1,.34-.46c.2-.29.38-.53.83-.42.19.05.45-.23.69-.36.27.66,1,.78,1.52,1.29-.11.41-.48.11-.7.22a.59.59,0,0,0,.95.24c.07-.06.06-.19.09-.29s.06-.29.1-.5c-.37-.39-1.23-.41-1.21-1.28.37,0,.74-.12,1,.25a4.91,4.91,0,0,0,.48.43.51.51,0,0,1,.15.3c-.09.61.36.88.71,1.24.13-.35.22-.7.37-1,0-.1.24-.14.41-.24,0,.18,0,.32,0,.46.07.63.39,1,1,.9.36,0,.54.07.62.43s.22.68.37,1.12c-.7-.11-1.39.25-1.95-.28a1.36,1.36,0,0,0-1.47-.26l0,.52a1.1,1.1,0,0,1-.32,0c-.54-.17-1.07-.38-1.62-.53-.23-.06-.32-.15-.3-.38s0-.45,0-.75a9.31,9.31,0,0,0-2.46.35,2.77,2.77,0,0,1-1.19.13,2.08,2.08,0,0,0-1.21.55c-.11.07-.06.43,0,.65a.59.59,0,0,1-.3.59c-.48.31-.94.66-1.4,1-.17.12-.37.2-.29.5s.16.44.49.38c0,.28,0,.55-.28.68,0,0-.06.09-.08.14a.41.41,0,0,0,0,.11c-.06,1.28-.06,1.28.8,2.25.21.24.42.49.64.73.34.4.59.41,1.12.27a6.17,6.17,0,0,1,1.06-.06,1,1,0,0,0,.51-.19,1.06,1.06,0,0,1,1.18,0,1.33,1.33,0,0,0,.55.26c.26.06.54.07.83.11a11.27,11.27,0,0,0-.1,1.13,1.68,1.68,0,0,0,.15.73c.3.59.65,1.14,1,1.73a.61.61,0,0,1,0,.44,7.85,7.85,0,0,1-.38.77.88.88,0,0,0,.17,1.21.63.63,0,0,1,.25.59c0,.11,0,.22,0,.32a1.74,1.74,0,0,0,.47,1.44,1.41,1.41,0,0,1,.22.68,5.42,5.42,0,0,1,0,.81l.52,0A18.33,18.33,0,0,1,1.43,11.38a.31.31,0,0,1,0,.09c-.07.52,0,.94.62,1.08.06,0,.11.13.13.21a.53.53,0,0,1,0,.25,2.63,2.63,0,0,0,.65,2.12c.13.17.4.22.61.32a.59.59,0,0,0,0-.76,2.43,2.43,0,0,1-.61-1.83h.32c0,.05.05.07.05.09a3.74,3.74,0,0,0,1,2.2.42.42,0,0,1,0,.54.49.49,0,0,0,0,.41,1.54,1.54,0,0,0,1.38,1,4,4,0,0,1,.64.16c.17-.4.46-.14.72-.14l0,.41s.06.06.09.06A2.27,2.27,0,0,1,9,18.67a1.06,1.06,0,0,0,1,.5c.25,0,.5,0,.77,0,0,.34.1.66.12,1a.35.35,0,0,1-.15.28A1.64,1.64,0,0,0,9.85,22a1.72,1.72,0,0,0,.49,1.45c.23.26.44.54.65.81,0,.05.13.11.13.17,0,.49.32.66.75.81a3.3,3.3,0,0,1,.94.65.55.55,0,0,1,.14.37c0,.83,0,1.65,0,2.48,0,.27,0,.48.38.5-.07.43-.15.83-.21,1.24,0,.11,0,.27.06.33a1.69,1.69,0,0,1,.46,1.73,1.23,1.23,0,0,0,.2.87,5.16,5.16,0,0,0,1.5,1.84c.39.3.83.13,1.24.15,0,0,.1-.31,0-.39a1.94,1.94,0,0,0-.48-.42.38.38,0,0,1-.15-.5c.07-.26.13-.52.21-.81-.35-.06-.71,0-.81-.39l.54-.71a1.82,1.82,0,0,1-.37-.15.77.77,0,0,1-.19-.21.83.83,0,0,1,.21-.17l1.4-.52a.53.53,0,0,0,.27-.22c.42-.57.83-1.17,1.25-1.74a.56.56,0,0,0,.13-.59,5.05,5.05,0,0,1-.12-.56.67.67,0,0,1,.7-.86A1.35,1.35,0,0,0,20.1,27a1.16,1.16,0,0,0,.53-1,9.23,9.23,0,0,1,.15-1.39,1.09,1.09,0,0,1,.23-.47c.3-.41.71-.76.67-1.36a1.43,1.43,0,0,0-.22-.08.91.91,0,0,1-.73-.6.51.51,0,0,0-.59-.33,4.15,4.15,0,0,1-2.3-.43.5.5,0,0,1-.23-.33c-.05-.21,0-.46-.08-.67-.18-.61-.38-.77-1-.74a.8.8,0,0,1-.86-.51c-.19-.38-.43-.72-.87-.71a1.93,1.93,0,0,1-.47.19.92.92,0,0,1-1.1-.38c-.17-.24-.69-.26-1.06-.3-.11,0-.3.16-.39.3a1.23,1.23,0,0,1-1.61.58c-.5-.14-.51-.09-.53-.63,0-.35.06-.8-.13-1s-.62-.19-1-.28c.06-.4.58-.71.22-1.23-.38.25-.76.49-1.13.76s-.74.09-1.1,0c-.19,0-.36-.73-.25-1a3.43,3.43,0,0,1,.58-1.18,2.41,2.41,0,0,1,1.24-.63,12.22,12.22,0,0,1,2,0c0,.24,0,.51.12.65a2.34,2.34,0,0,0,.69.36,1.7,1.7,0,0,0,0-.46c-.18-.63.21-1,.64-1.3l.54-.35c.3-.17.57-.35.56-.75a.33.33,0,0,1,.12-.21,6.63,6.63,0,0,1,1.86-1.55,3.14,3.14,0,0,0,.81-.78c.23-.26.45-.29.7,0l.24-.26c-.2-.16-.38-.29-.54-.44A.58.58,0,0,1,16,8.12a.51.51,0,0,1,.71.39c.31-.15.72.06.92-.36,0,0,.23,0,.24,0a.44.44,0,0,1,0,.32c-.32.41-.31.47.19.62l.82.23c.15-.35.07-.53-.25-.65A4.12,4.12,0,0,1,18,8.37l.38-.17c.16-.09.41,0,.43-.35s0-.51-.32-.63a.58.58,0,0,1-.4-.69,5.78,5.78,0,0,0,0-.59l-1.33.53.06-.91c-.4-.09-.81-.21-1.22-.29-.21,0-.6.38-.61.6v.07c0,.3.1.67,0,.88s-.53.2-.77.36a1.37,1.37,0,0,0-.4.54c-.12.24-.24.42-.58.31v-1C13,7,12.77,7,12.57,7A2.23,2.23,0,0,1,12,6.7a.55.55,0,0,1,0-1,6.06,6.06,0,0,1,2.07-1l.1.46c.18,0,.39.15.5-.18,0-.08.26-.1.4-.15l-.24-.46a1.14,1.14,0,0,0,1-.4c.17-.15.48-.14.73-.21a.89.89,0,0,1,1.06.4L16.29,5,18,5.38s.07-.07.07-.09a.54.54,0,0,1,.71-.49c.38.07.38-.28.54-.51a1.28,1.28,0,0,0-.29-.08.25.25,0,0,1-.25-.34c.06-.31-.09-.45-.37-.55A6.58,6.58,0,0,1,17.61,3,2.4,2.4,0,0,0,15.55,3a.46.46,0,0,0-.33.58,3.65,3.65,0,0,1,0,.47c-.28-.12-.69.09-.73-.4a.48.48,0,0,1,.11-.32,5.7,5.7,0,0,1,.49-.47c-.44,0-.79-.06-1.15-.06a.45.45,0,0,0-.51.49l.36.11c.06.35-.07.5-.44.48-.2,0-.41,0-.49.24,0,0-.11.08-.17.08-.31,0-.62,0-1,0l-.08-.63a1.28,1.28,0,0,0,1.49-.67l-.31-.17c-.27.27-.49.55-.95.46a.75.75,0,0,1-.57-.33,1.21,1.21,0,0,0-1.45-.26,4.82,4.82,0,0,0-.83.7h.53c.46,0,.51.09.3.48.33.25.92-.22,1.13.44H9.83l0-.09a2.57,2.57,0,0,0-.56-.31c-.51-.15-1-.27-1.55-.4,0,0,0,0,.09-.08A18.54,18.54,0,0,1,15.46.26C16.14.15,16.84.1,17.53,0Zm7.65,8.23c.84.16,1.28,0,1.54-.46-.72-.29-.88-.94-1-1.62a1,1,0,0,0-.36.06,1,1,0,0,0-.39.35c-.1.2.08.32.24.41a1,1,0,0,1,.35.24.62.62,0,0,1,0,.35C27,7.63,27.18,8,27.12,8.25ZM25.88,8c.44.06.44.07,1-.39.11-.09.13-.29.2-.44A1.1,1.1,0,0,0,26.62,7,.89.89,0,0,0,25.88,8ZM17.29,9.3l0-.08c-.12,0-.32,0-.33,0-.14.32-.44.25-.69.3.06.32.25.46.48.31A3.17,3.17,0,0,0,17.29,9.3Zm-1.81.59.09.09c.1-.05.27-.08.3-.15s-.07-.22-.11-.33h-.11Z"/>
      </g>
    </g>
  </g>
</svg>
